PathFileType	4	(X/Y/Z)	./resultDataOpenSim/trcMotMarkerGrf/sub06/qtm-15-02.trc
DataRate	CameraRate	NumFrames	NumMarkers	Units	OrigDataRate	OrigDataStartFrame	OrigNumFrames
250.000000	250.000000	8	24	m	250.000000	411	547
Frame#	Time	L.Toe.Tip			R.Toe.Tip			L.Ankle.Lat			R.Ankle.Lat			L.Ankle.Med			R.Ankle.Med			L.Heel			R.Heel			L.Knee.Lat			R.Knee.Lat			L.Knee.Med			R.Knee.Med			L.Thigh.Upper			R.Thigh.Upper			L.ASIS			R.ASIS			V.Sacral			L.Acromium			R.Acromium			C7			L.Elbow			R.Elbow			L.Wrist.Lat			R.Wrist.Lat
		X1	Y1	Z1	X2	Y2	Z2	X3	Y3	Z3	X4	Y4	Z4	X5	Y5	Z5	X6	Y6	Z6	X7	Y7	Z7	X8	Y8	Z8	X9	Y9	Z9	X10	Y10	Z10	X11	Y11	Z11	X12	Y12	Z12	X13	Y13	Z13	X14	Y14	Z14	X15	Y15	Z15	X16	Y16	Z16	X17	Y17	Z17	X18	Y18	Z18	X19	Y19	Z19	X20	Y20	Z20	X21	Y21	Z21	X22	Y22	Z22	X23	Y23	Z23	X24	Y24	Z24

411	1.64	1.6985753	0.12794178	-0.10258753	0.98232137	0.035315974	0.083157857	1.5746853	0.11228474	-0.13737832	0.87484775	0.11491489	0.11129632	1.5655517	0.12090243	-0.052712932	0.90077915	0.1271119	0.025170914	1.5170405	0.050934207	-0.1028114	0.81726812	0.12073348	0.053138478	1.4651248	0.46319887	-0.12365773	1.1003297	0.43996301	0.13096836	1.4273671	0.44322786	-0.0036761306	1.0786813	0.43748894	0.00070121163	1.274689	0.8020494	-0.16860598	1.1736569	0.79545753	0.17061677	1.3303627	0.85386803	-0.107533	1.2892268	0.84851204	0.13945417	1.124922	0.91879589	-0.013159939	1.2286809	1.3344728	-0.1864835	1.2371737	1.3292713	0.17109632	1.1483179	1.3579167	-0.0059612001	1.1007773	1.055706	-0.24173884	1.3723874	1.042303	0.26412703	1.148734	0.82440018	-0.29623998	1.5637554	1.1636453	0.15002867
412	1.644	1.7049617	0.12707627	-0.10332552	0.98248382	0.035328136	0.083236345	1.581451	0.11076856	-0.13799509	0.87623111	0.11613931	0.11169744	1.5720026	0.11941377	-0.053322232	0.90219181	0.12810633	0.025553206	1.5237795	0.049131956	-0.10328297	0.81886592	0.12262919	0.053452333	1.470492	0.46158106	-0.12424524	1.1050796	0.43895583	0.13093627	1.4326012	0.44143239	-0.0043205932	1.0833562	0.43657093	0.00068193297	1.2813712	0.80063747	-0.16906875	1.1785229	0.79436564	0.17023994	1.3369429	0.85224015	-0.10786941	1.2955283	0.84697799	0.13907568	1.1309851	0.91735098	-0.013527367	1.2343466	1.3328049	-0.18755002	1.2426961	1.3279294	0.17017022	1.1539698	1.3563417	-0.0070338547	1.105983	1.0543712	-0.24244947	1.3780496	1.0410394	0.26347207	1.152971	0.8230104	-0.29747024	1.5689202	1.1628865	0.14879962
413	1.648	1.7109211	0.12586557	-0.10410524	0.98265938	0.035347835	0.083323123	1.5877193	0.10904172	-0.13855229	0.87764911	0.11740455	0.11210338	1.5780357	0.11778754	-0.053894112	0.90369673	0.12913818	0.025949824	1.5300055	0.047230777	-0.10357282	0.82052467	0.12462964	0.053809533	1.4758882	0.46000229	-0.12486157	1.1099322	0.4379364	0.13091755	1.4379489	0.43980626	-0.0050107397	1.0881149	0.43560938	0.00064616096	1.2880806	0.79930705	-0.16958426	1.1834893	0.79325571	0.16986246	1.3435384	0.85062985	-0.10821751	1.3020753	0.845453	0.13868302	1.1370964	0.91584761	-0.013863362	1.2400703	1.3311289	-0.18863775	1.2482325	1.3265911	0.16921697	1.1596674	1.3547701	-0.0081429411	1.111297	1.0529932	-0.24317987	1.3834775	1.0397241	0.2628497	1.1573466	0.82158051	-0.29870155	1.5740599	1.1619475	0.14758858
414	1.652	1.7164593	0.1242971	-0.10492018	0.98285005	0.035375582	0.083410338	1.5933814	0.10711346	-0.13906988	0.87912949	0.11871196	0.11251143	1.5836587	0.11601535	-0.054431209	0.9052981	0.13020862	0.026360869	1.5357198	0.0452238	-0.10369231	0.82213535	0.12678293	0.054308559	1.4813305	0.45845669	-0.12549819	1.1149114	0.43689972	0.13090618	1.4434198	0.43831629	-0.005734835	1.0929662	0.43459515	0.00059837291	1.294823	0.79805416	-0.17014458	1.1886032	0.79211239	0.16947397	1.3501436	0.84903841	-0.10859246	1.3088389	0.84393852	0.1382698	1.1432807	0.91428235	-0.014154583	1.2458584	1.3294474	-0.18975171	1.2538317	1.3252456	0.16823396	1.1654078	1.3531959	-0.0092849218	1.1167289	1.0515769	-0.24393487	1.3888033	1.0383411	0.26222999	1.1618558	0.82011245	-0.29993328	1.5791762	1.1608303	0.14637707
415	1.656	1.7215835	0.12235765	-0.10576668	0.98305507	0.035412796	0.083494353	1.5984126	0.10499462	-0.13956592	0.8806928	0.12006088	0.11291917	1.5888914	0.11409285	-0.054937678	0.907	0.13131906	0.026783792	1.5409246	0.043100021	-0.10368358	0.82371218	0.12907837	0.054934985	1.4868291	0.45694064	-0.12615361	1.1200123	0.43584127	0.13089573	1.4490434	0.43693609	-0.0064766578	1.0979413	0.4335324	0.00056058528	1.3016025	0.79687341	-0.17074431	1.1938493	0.7909377	0.16907643	1.3567579	0.84746582	-0.10901031	1.3156419	0.84242985	0.13782551	1.1495625	0.91265303	-0.014390805	1.2517149	1.3277619	-0.19089415	1.2595329	1.3238893	0.16722194	1.171202	1.3516195	-0.010449655	1.1222804	1.0501266	-0.24472129	1.3941661	1.0368785	0.26158785	1.1664972	0.81861314	-0.3011616	1.5842721	1.1595426	0.14516182
416	1.66	1.726301	0.12004373	-0.1066455	0.98327427	0.035460605	0.08357572	1.6029165	0.10269387	-0.14004299	0.88234801	0.12145169	0.11332597	1.5937728	0.11202472	-0.055421635	0.90880709	0.13246904	0.027218906	1.5456275	0.040856352	-0.10362702	0.82541512	0.13143491	0.055542861	1.4923835	0.45545421	-0.12683466	1.1252369	0.43475805	0.13088784	1.454827	0.43564206	-0.0072259262	1.1030779	0.43243712	0.00056038229	1.3084132	0.79575346	-0.1713865	1.199197	0.7897414	0.16867471	1.363384	0.84591552	-0.10947335	1.3223197	0.84091635	0.13734425	1.1559595	0.91096319	-0.01458596	1.2576359	1.3260752	-0.19206197	1.2653422	1.3225295	0.16618012	1.177058	1.3500494	-0.011630374	1.1279383	1.0486444	-0.24555347	1.3995614	1.0353423	0.26092462	1.1712745	0.81708619	-0.30238449	1.5893643	1.1580913	0.14397652
417	1.664	1.7306196	0.11737132	-0.10755964	0.98350898	0.035516763	0.083655455	1.6070292	0.10021924	-0.14050183	0.88410763	0.12288629	0.11373519	1.5983397	0.10981993	-0.055897347	0.91072874	0.13365666	0.027668439	1.5498371	0.038503886	-0.10362921	0.82738624	0.13378971	0.056014589	1.4979885	0.45399944	-0.12754812	1.1306023	0.43364641	0.13088892	1.4607573	0.43440928	-0.0079767703	1.1083884	0.43132278	0.00060731142	1.3152434	0.79467795	-0.1720711	1.2046781	0.78851863	0.16825662	1.3700286	0.84439925	-0.10996395	1.3288445	0.8393857	0.13682158	1.1624748	0.90922825	-0.014801195	1.2636145	1.3243909	-0.19324974	1.2712458	1.3211761	0.16510413	1.1829719	1.3484904	-0.012826323	1.1336817	1.0471328	-0.2464512	1.4048845	1.0337469	0.26025741	1.1761944	0.81552853	-0.30360585	1.5944968	1.1564788	0.14290814
418	1.668	1.7345466	0.11438268	-0.10850953	0.98375661	0.035574014	0.083729417	1.6108101	0.097579579	-0.14095054	0.885992	0.12436797	0.11415157	1.6026034	0.10747916	-0.056376644	0.91278047	0.13487868	0.028131789	1.5535576	0.036060504	-0.10378047	0.82962316	0.13616347	0.056376985	1.5036387	0.4525771	-0.12829228	1.1361294	0.43250018	0.1309032	1.4668199	0.4332163	-0.0087226102	1.1138628	0.4301876	0.00069895281	1.322083	0.7936257	-0.17278572	1.2104626	0.78722816	0.16777344	1.3766998	0.84292759	-0.11047147	1.3352652	0.83782997	0.13624873	1.1690916	0.9074762	-0.015137334	1.2696446	1.3227114	-0.19445361	1.2772233	1.3198342	0.16399141	1.1889355	1.3469349	-0.014040158	1.1395049	1.0455913	-0.24740277	1.410109	1.0320944	0.25958942	1.1812644	0.81393593	-0.30482942	1.5997259	1.1546999	0.14207288
